<?xml version="1.0" standalone="no"?>
<!DOCTYPE svg PUBLIC "-//W3C//DTD SVG 20010904//EN"
 "http://www.w3.org/TR/2001/REC-SVG-20010904/DTD/svg10.dtd">
<svg version="1.0" xmlns="http://www.w3.org/2000/svg"
 width="784.000000pt" height="904.000000pt" viewBox="0 0 784.000000 904.000000"
 preserveAspectRatio="xMidYMid meet">
<metadata>
Created by potrace 1.16, written by Peter Selinger 2001-2019
</metadata>
<g transform="translate(0.000000,904.000000) scale(0.100000,-0.100000)"
fill="#000000" stroke="none">
<path d="M3767 8440 c-194 -21 -235 -33 -309 -88 -78 -58 -94 -64 -175 -68
l-74 -3 -127 -119 c-70 -65 -162 -144 -204 -176 -103 -76 -210 -177 -329 -309
-118 -131 -173 -173 -287 -222 -162 -70 -290 -167 -336 -256 -24 -45 -27 -61
-29 -182 -3 -145 -5 -152 -93 -297 -22 -36 -50 -90 -64 -120 -34 -80 -95 -207
-129 -269 -36 -68 -45 -123 -32 -198 6 -32 13 -74 16 -93 4 -19 10 -156 14
-305 4 -148 11 -278 15 -287 6 -13 2 -20 -15 -27 -56 -23 -103 -85 -112 -146
-4 -26 5 -109 24 -225 51 -313 50 -307 39 -391 -7 -62 -19 -99 -54 -167 -71
-139 -89 -204 -81 -287 3 -38 5 -108 3 -155 -7 -193 -1 -285 25 -412 33 -157
55 -205 121 -266 103 -94 223 -107 290 -33 11 12 22 21 26 21 4 0 10 -53 13
-117 4 -70 14 -146 26 -188 17 -59 20 -110 24 -330 4 -222 8 -272 26 -340 11
-44 27 -93 35 -110 9 -16 30 -64 47 -105 17 -41 67 -145 110 -230 94 -187 123
-222 399 -487 204 -196 303 -279 500 -423 87 -63 398 -301 451 -344 123 -101
254 -180 344 -210 47 -15 253 -68 340 -88 70 -15 402 -22 500 -9 109 14 265
61 360 108 188 93 241 141 415 377 80 108 165 229 190 269 44 71 188 262 272
360 110 129 251 314 284 373 43 77 71 156 124 354 22 80 48 172 59 205 33 100
110 384 131 484 12 52 24 99 27 104 4 6 15 -1 27 -15 26 -31 79 -59 115 -60
65 -2 99 21 171 114 39 50 73 102 77 116 3 14 3 83 -1 154 -5 113 -3 142 15
221 18 76 21 108 15 192 -5 76 -2 121 9 176 9 41 17 128 18 194 2 128 -11 184
-57 250 -18 25 -21 42 -18 110 2 96 37 342 57 405 31 100 30 119 -10 229 -12
32 -17 88 -19 195 -3 112 -8 161 -20 188 -11 27 -14 53 -10 90 5 48 2 58 -27
103 -32 49 -33 53 -40 200 -13 258 -33 378 -89 535 -36 103 -36 116 -5 205 28
78 43 246 28 325 -8 42 -13 48 -91 100 -46 30 -104 68 -130 85 -140 87 -375
273 -406 320 -18 28 -91 216 -101 262 -10 50 -78 126 -168 190 -221 155 -285
194 -425 252 -57 24 -122 60 -145 79 -73 61 -152 91 -263 102 -54 5 -128 14
-163 20 -48 9 -82 9 -145 -1 -163 -24 -177 -24 -247 11 -36 19 -89 36 -124 40
-33 5 -112 17 -175 28 -170 30 -264 32 -453 12z m812 -159 c7 -5 10 -14 7 -20
-5 -7 3 -11 22 -11 16 0 34 -6 40 -12 6 -8 9 -61 7 -133 -3 -88 0 -126 10
-141 17 -26 67 -50 134 -65 43 -9 58 -8 86 5 32 16 39 15 122 -5 68 -17 99
-30 137 -60 50 -40 56 -41 171 -43 53 -1 70 -7 135 -45 41 -25 95 -59 120 -75
58 -40 79 -53 110 -67 14 -6 32 -14 40 -19 8 -4 20 -29 25 -57 8 -38 19 -57
48 -82 20 -18 37 -39 37 -46 0 -14 142 -137 248 -214 76 -55 92 -77 111 -149
7 -23 25 -57 40 -75 16 -17 60 -93 99 -167 59 -112 73 -148 82 -210 17 -118
31 -179 41 -185 5 -4 9 -43 9 -87 0 -70 4 -91 31 -149 30 -65 31 -71 21 -126
-15 -80 0 -238 31 -333 14 -41 25 -88 25 -105 -1 -16 3 -40 7 -52 l7 -22 -228
4 c-126 3 -323 7 -439 10 -115 3 -311 7 -435 10 -124 3 -256 7 -295 10 -38 3
-171 7 -295 10 -124 3 -287 10 -363 16 -76 5 -142 7 -146 5 -4 -3 -52 -1 -107
4 -54 5 -189 12 -299 16 -110 4 -220 8 -245 9 -25 2 -189 10 -365 19 -176 9
-369 19 -430 21 -60 3 -186 10 -280 15 -93 5 -194 10 -222 10 -29 0 -53 5 -53
10 0 6 29 57 65 113 38 61 65 114 65 130 0 34 -13 35 -30 2 -7 -14 -17 -25
-22 -25 -10 0 -10 5 2 55 5 21 5 44 1 50 -5 5 -9 17 -9 25 -1 8 -2 22 -3 30
-2 8 9 41 24 72 31 63 29 108 -4 108 -24 0 -24 2 7 47 24 35 24 38 8 50 -17
12 -17 15 3 41 11 15 24 39 28 52 4 14 14 34 21 44 10 15 11 23 2 33 -8 10 -8
27 2 67 14 59 9 76 -21 76 -28 0 -24 13 32 95 47 67 51 78 45 113 -5 33 -2 44
19 66 20 22 23 30 13 45 -9 16 -6 25 19 57 47 60 143 239 143 266 0 19 19 38
80 83 83 62 126 83 172 84 15 1 72 22 125 47 54 25 139 65 189 89 70 33 100
54 136 94 57 66 124 101 193 101 28 0 56 5 62 11 6 6 32 15 58 20 28 5 54 17
64 31 18 22 18 22 89 5 95 -23 130 -21 197 9 51 23 62 25 90 15 43 -15 66 -14
93 5 29 20 28 39 -3 76 -30 36 -28 42 9 28 36 -13 41 -9 56 46 10 35 11 54 3
75 -10 26 -9 29 8 29 11 0 17 5 14 10 -12 19 -68 42 -159 65 -101 25 -102 24
44 44 87 12 252 13 269 2z m386 -7 c8 -3 15 -1 15 5 0 21 39 11 146 -40 78
-36 117 -61 141 -89 19 -22 53 -46 79 -56 25 -9 49 -25 55 -36 12 -22 3 -23
-70 -3 -56 14 -94 45 -181 142 -16 19 -24 21 -45 13 -63 -24 -136 1 -174 60
-17 26 -20 26 34 4z m-1759 -167 c2 -2 -1 -21 -7 -42 -11 -37 -10 -40 22 -68
l34 -28 -35 5 c-19 3 -66 8 -103 12 -72 7 -91 22 -68 53 6 9 21 31 33 50 21
32 23 33 71 28 27 -4 51 -8 53 -10z m-191 -313 c-9 -14 -41 -37 -72 -50 -43
-20 -53 -27 -44 -38 19 -23 -10 -37 -63 -30 -42 6 -46 5 -46 -15 0 -12 -6 -37
-14 -55 -13 -31 -18 -33 -87 -45 -52 -9 -82 -10 -100 -2 -15 5 -30 7 -33 4 -3
-4 -6 3 -6 13 0 34 17 42 71 32 62 -11 112 12 117 55 4 32 111 117 147 117 13
0 49 14 81 31 62 32 78 27 49 -17z m-291 -423 c8 -13 -13 -27 -61 -42 -52 -15
-57 -34 -8 -26 24 4 35 2 34 -6 -1 -16 -108 -107 -126 -107 -19 0 -16 37 4 49
28 15 8 25 -26 13 -25 -9 -31 -8 -31 3 0 8 5 17 11 21 6 3 8 17 5 29 -7 28 -2
32 77 55 70 20 113 24 121 11z m-859 -1652 c2 -3 -1 -22 -6 -44 -25 -94 -24
-97 27 -148 92 -89 24 -56 -125 60 -27 22 -33 82 -11 122 11 21 18 23 61 19
27 -3 51 -7 54 -9z m335 -54 c187 -24 409 -38 910 -55 151 -5 421 -16 600 -24
179 -8 412 -18 519 -21 340 -11 382 -13 571 -24 179 -10 352 -19 530 -27 47
-2 139 -6 205 -8 112 -5 807 -22 885 -22 158 0 472 -19 487 -30 10 -7 15 -15
11 -19 -7 -8 -492 -8 -578 0 -30 3 -251 9 -490 15 -515 12 -1083 29 -1195 35
-44 2 -179 9 -300 15 -121 6 -283 15 -360 20 -77 5 -147 8 -155 7 -8 -1 -64 2
-125 6 -323 22 -423 29 -665 42 -146 8 -326 19 -400 24 -74 5 -201 13 -281 16
l-146 7 -7 -34 c-4 -18 -11 -100 -16 -181 -5 -82 -11 -151 -14 -154 -9 -9 -80
8 -126 30 -40 20 -45 27 -56 72 -25 110 -47 167 -81 207 -28 34 -34 47 -29 72
9 45 42 69 86 62 19 -4 118 -17 220 -31z m1155 -225 c261 -16 434 -37 560 -66
146 -34 238 -64 271 -89 64 -49 99 -152 92 -272 -9 -146 -142 -479 -297 -746
-87 -149 -150 -206 -246 -222 -22 -4 -71 -13 -110 -20 -177 -34 -461 -27 -735
20 -328 55 -362 87 -435 410 -26 119 -44 145 -95 145 -15 0 -35 9 -45 20 -18
20 -17 20 43 20 58 0 62 2 62 23 0 37 -15 49 -76 61 -47 9 -62 17 -74 38 -16
30 -8 47 13 29 8 -6 35 -15 60 -20 51 -9 67 -1 67 36 0 27 -32 43 -86 43 -55
0 -89 23 -108 74 -19 50 -63 93 -104 102 -36 8 -112 52 -112 64 0 13 4 13 48
-6 62 -25 208 -54 277 -54 l66 0 -3 42 -3 42 -115 16 c-154 22 -291 74 -298
114 -4 20 11 18 83 -14 60 -27 184 -59 235 -60 101 -4 97 -6 104 56 8 67 23
98 68 140 53 51 95 67 193 74 143 11 526 11 700 0z m-1647 -120 c77 -36 92
-65 83 -155 -8 -74 -4 -93 17 -100 9 -3 27 -20 40 -39 23 -33 65 -56 103 -56
18 0 49 -46 49 -73 0 -8 -9 -26 -21 -41 l-21 -26 22 -18 c14 -11 24 -35 30
-72 4 -30 15 -73 24 -95 9 -25 15 -73 16 -127 0 -49 4 -88 9 -88 13 0 24 111
26 270 2 140 17 228 40 233 12 3 41 -79 108 -303 68 -228 87 -295 87 -309 0
-6 -17 -22 -39 -35 -30 -19 -44 -38 -65 -90 -29 -74 -33 -113 -12 -142 14 -18
15 -18 25 8 5 14 26 39 47 54 20 16 47 45 61 67 l24 38 30 -58 c38 -73 53 -92
108 -131 93 -68 362 -127 761 -167 176 -18 396 -13 470 10 119 36 195 81 259
152 34 37 61 72 61 76 0 5 15 26 33 47 42 49 151 240 178 311 56 147 142 329
170 354 41 40 123 46 218 15 78 -25 78 -25 104 -150 53 -262 156 -535 250
-666 76 -106 238 -198 402 -229 120 -22 548 -32 701 -16 111 12 309 56 377 86
61 25 124 91 157 162 16 34 33 63 38 63 5 0 26 -7 45 -15 20 -8 40 -15 46 -15
5 0 9 42 9 93 1 50 6 124 12 162 14 87 77 295 90 295 14 0 12 -29 -6 -101 -19
-74 -14 -132 15 -163 11 -12 30 -44 43 -71 19 -43 22 -65 21 -155 -1 -59 -9
-136 -18 -175 -9 -38 -16 -97 -15 -130 3 -83 4 -81 -30 -117 -39 -40 -37 -74
3 -71 32 2 32 3 6 -94 -16 -58 -20 -91 -15 -137 18 -176 18 -182 1 -217 -23
-46 -145 -169 -167 -169 -33 0 -97 48 -104 78 -26 115 -36 128 -54 63 -5 -21
-20 -49 -33 -63 -18 -19 -35 -76 -77 -259 -34 -150 -65 -259 -86 -304 -17 -38
-39 -99 -48 -134 -9 -35 -26 -79 -37 -98 -12 -18 -19 -39 -16 -47 3 -7 -2 -41
-12 -77 -12 -47 -22 -67 -40 -75 -31 -16 -41 -32 -41 -69 0 -16 -7 -41 -14
-54 -15 -28 -21 -19 -31 53 -4 25 -11 46 -15 46 -14 0 -50 -57 -56 -89 -5 -25
-3 -31 11 -31 12 0 15 -5 11 -16 -3 -9 -6 -20 -6 -25 0 -5 -11 -9 -25 -9 -31
0 -78 -69 -81 -118 -1 -18 -12 -60 -25 -93 -24 -65 -51 -86 -97 -74 -24 6 -24
8 -18 70 8 83 22 120 52 140 20 13 24 24 24 64 0 31 -5 53 -15 61 -12 10 -14
27 -9 89 4 43 1 123 -5 179 l-12 101 51 87 c99 167 126 232 159 379 17 78 31
156 32 175 0 19 4 44 8 54 4 10 4 43 0 72 -8 60 -16 69 -175 205 -71 60 -104
81 -104 64 0 -2 23 -28 50 -57 28 -29 50 -56 50 -60 0 -4 23 -41 52 -80 45
-63 52 -80 55 -128 2 -30 -1 -62 -7 -70 -9 -13 -13 -12 -28 7 -32 42 -89 65
-151 61 -52 -3 -56 -5 -59 -30 -3 -25 -5 -26 -30 -16 -15 6 -47 17 -71 24
l-43 14 6 -30 c7 -36 0 -37 -31 -8 -28 26 -86 30 -109 7 -14 -14 -24 -14 -107
8 -50 13 -97 21 -104 19 -6 -3 -24 9 -38 26 -17 19 -37 32 -53 33 -15 0 -37 4
-50 9 -18 6 -25 2 -39 -22 -15 -26 -21 -29 -59 -24 -28 3 -77 -5 -150 -26 -65
-19 -120 -29 -137 -25 -18 4 -47 -3 -85 -20 -32 -14 -95 -31 -144 -37 -79 -11
-90 -10 -131 8 -24 11 -73 43 -108 71 -35 29 -75 55 -89 58 -30 7 -60 31 -60
48 0 7 -26 20 -57 28 -59 17 -104 13 -150 -11 -30 -17 -102 -15 -137 3 -43 23
-73 19 -93 -12 -31 -49 -53 -56 -53 -18 0 32 -7 31 -43 -2 -29 -27 -30 -27
-24 -5 4 19 1 22 -26 22 -17 0 -40 9 -53 21 -20 19 -24 19 -50 6 -16 -8 -49
-17 -74 -20 -25 -3 -54 -9 -64 -13 -15 -6 -17 -3 -12 14 7 21 5 21 -38 16 -25
-4 -46 -3 -46 2 -1 28 -16 33 -60 20 -25 -7 -54 -12 -65 -11 -49 4 -90 19
-105 37 -15 19 -18 19 -54 4 -21 -9 -40 -16 -41 -16 -9 0 -23 90 -18 115 12
61 79 137 220 250 35 28 63 54 63 58 0 9 -83 -42 -177 -109 -117 -83 -176
-179 -199 -324 -8 -47 -21 -102 -30 -122 -16 -37 -16 -39 10 -97 15 -34 26
-77 26 -101 0 -32 9 -56 35 -96 44 -66 65 -132 65 -206 0 -48 -4 -60 -23 -74
-22 -17 -22 -19 -8 -51 8 -18 20 -33 26 -33 5 0 -1 -9 -15 -20 -17 -13 -20
-20 -10 -20 8 0 21 -4 29 -9 11 -7 9 -14 -14 -33 -26 -23 -27 -26 -15 -62 9
-29 9 -40 0 -51 -22 -26 -37 -16 -64 43 -14 31 -37 77 -50 102 -42 79 -134
274 -156 330 -12 29 -32 106 -46 169 -13 64 -34 140 -46 169 -17 44 -19 57 -9
79 10 21 8 32 -7 62 -10 20 -22 48 -26 64 -6 25 -4 27 24 27 38 0 40 27 5 62
-26 26 -63 38 -117 38 -26 0 -29 -2 -18 -15 7 -8 13 -36 15 -62 1 -27 10 -68
20 -93 10 -25 18 -72 19 -105 0 -53 3 -62 28 -83 20 -17 28 -33 28 -57 0 -19
4 -36 9 -39 15 -10 49 -90 66 -157 9 -35 25 -79 36 -98 11 -19 27 -55 36 -79
8 -25 33 -82 54 -126 61 -124 119 -257 119 -273 0 -7 14 -41 31 -74 32 -63 63
-215 47 -225 -14 -9 -78 45 -78 66 0 48 -45 156 -77 185 -20 18 -58 81 -98
162 -35 72 -76 144 -90 159 -14 15 -25 39 -25 55 0 16 -8 34 -19 41 -13 9 -16
19 -11 33 6 15 -1 29 -26 55 -18 19 -48 52 -66 73 -31 35 -34 37 -53 23 -15
-11 -17 -19 -10 -29 6 -8 18 -26 29 -41 17 -24 17 -28 4 -44 -9 -9 -18 -42
-22 -73 l-6 -57 32 -6 c37 -7 58 -33 79 -101 16 -50 19 -52 52 -40 15 6 17 -1
17 -69 0 -54 4 -76 13 -77 57 -3 72 -18 113 -107 18 -40 54 -103 78 -140 32
-47 48 -83 52 -116 4 -26 12 -53 19 -59 17 -17 47 -120 43 -146 -4 -30 -22
-27 -30 7 -5 19 -19 34 -42 45 -46 21 -89 89 -81 125 8 39 -13 61 -65 70 -36
6 -46 12 -48 30 -2 12 -8 22 -13 22 -5 0 -7 16 -3 38 5 34 1 43 -52 112 -63
82 -144 157 -213 195 -32 19 -58 25 -100 25 -67 0 -79 9 -110 87 -28 71 -40
184 -46 413 -3 107 -9 218 -15 245 -5 28 -21 145 -35 260 -14 116 -27 216 -30
223 -9 24 -48 11 -118 -38 -39 -28 -81 -50 -94 -50 -36 0 -100 37 -149 85 -36
36 -44 51 -44 80 0 20 -7 68 -14 108 -16 76 -36 216 -36 247 0 15 6 17 40 13
38 -5 40 -4 40 20 0 14 -18 63 -41 109 -40 81 -40 85 -37 173 4 81 8 99 45
175 73 150 82 174 94 240 10 58 9 78 -14 195 -14 72 -29 159 -33 195 -7 60 -6
64 9 51 10 -7 17 -28 17 -46 0 -19 3 -40 6 -49 7 -19 24 -21 24 -3 0 31 23 89
45 116 l25 29 -49 31 c-64 42 -101 79 -101 103 0 22 52 78 72 78 7 0 41 -13
76 -30z m4407 -5 c219 -10 450 -56 528 -104 49 -30 66 -61 85 -154 l17 -82 85
-5 c77 -5 85 -7 85 -25 0 -18 -8 -20 -90 -25 l-90 -5 0 -35 c0 -34 1 -35 45
-37 76 -5 130 -14 130 -23 0 -17 -64 -30 -116 -24 -66 8 -84 -4 -84 -57 l0
-39 51 0 c46 0 55 4 85 36 37 38 40 36 23 -17 -21 -60 -34 -69 -98 -62 -64 6
-91 -9 -91 -52 0 -45 69 -54 106 -14 22 24 34 24 34 1 0 -35 -37 -62 -85 -62
-32 0 -51 -6 -66 -21 -33 -33 -21 -54 34 -57 26 -2 47 -6 47 -11 0 -17 -27
-31 -61 -31 -29 0 -43 -6 -58 -26 -12 -15 -21 -32 -21 -38 0 -15 -82 -221
-107 -271 -69 -133 -245 -176 -723 -176 -302 0 -425 20 -525 87 -73 48 -104
91 -175 239 -130 274 -199 531 -200 741 0 236 70 309 335 349 87 13 618 13
900 0z m-1425 -386 c83 -19 101 -42 144 -189 88 -299 172 -543 219 -637 58
-114 167 -181 367 -225 98 -21 127 -23 420 -22 190 0 338 5 372 12 100 20 164
42 214 74 27 17 73 46 102 65 63 40 71 24 16 -37 -72 -80 -162 -112 -422 -150
-94 -13 -172 -19 -230 -16 -180 9 -507 38 -522 46 -8 4 -40 11 -70 15 -70 9
-170 67 -230 132 -63 68 -100 148 -170 368 -34 105 -68 205 -76 223 -8 18 -14
39 -14 48 0 27 -53 178 -72 206 -27 39 -82 51 -215 46 -97 -3 -115 -6 -133
-24 -20 -19 -140 -282 -140 -305 0 -22 -130 -277 -180 -354 -120 -183 -189
-238 -340 -276 -82 -20 -120 -23 -270 -23 -174 0 -250 8 -515 54 -270 46 -329
60 -368 86 -40 26 -46 45 -8 25 149 -80 830 -156 1090 -122 110 14 160 39 248
124 130 125 209 265 345 612 21 53 77 167 99 203 13 20 69 44 129 56 33 6 153
-3 210 -15z m-1540 -2179 c25 -16 83 -70 128 -119 213 -232 415 -341 747 -405
165 -32 493 -56 692 -51 219 5 270 10 371 37 162 43 285 112 490 276 57 45
107 82 112 82 5 0 17 -15 26 -32 26 -50 23 -212 -6 -388 -19 -116 -27 -148
-44 -162 -19 -16 -20 -17 -3 -36 23 -25 21 -42 -4 -42 -21 0 -22 -14 -3 -64 4
-12 0 -16 -15 -16 -13 0 -21 -6 -21 -16 0 -9 -19 -34 -42 -55 -41 -37 -42 -39
-30 -72 16 -44 15 -57 -3 -57 -34 0 -53 -35 -70 -131 -15 -89 -16 -99 -1 -127
22 -43 21 -55 -3 -42 -29 15 -30 14 -37 -42 -6 -46 -8 -50 -17 -30 -6 12 -14
22 -19 22 -15 0 -20 -28 -9 -49 11 -19 9 -20 -19 -15 -26 6 -30 4 -30 -16 0
-18 -4 -21 -24 -16 -15 4 -26 1 -29 -7 -3 -9 -16 -12 -37 -9 -23 3 -37 -1 -55
-18 -13 -12 -28 -19 -34 -15 -10 6 -20 -11 -35 -59 -6 -17 -8 -18 -24 -2 -25
22 -28 21 -40 -13 -8 -23 -18 -30 -50 -36 -36 -6 -43 -11 -59 -51 -19 -46 -30
-54 -39 -29 -5 11 -12 7 -28 -18 -23 -34 -66 -47 -90 -28 -14 12 -129 4 -156
-9 -19 -11 -50 6 -50 28 0 9 -15 24 -33 32 -23 11 -33 24 -37 44 -3 17 -9 30
-13 30 -4 1 -39 -21 -77 -49 -62 -44 -70 -53 -70 -82 0 -33 -1 -33 -42 -32
-24 1 -54 -2 -67 -6 -18 -6 -22 -5 -17 4 4 7 5 19 2 27 -5 13 -9 13 -35 -1
-39 -20 -38 -20 -51 20 -6 19 -20 40 -31 45 -16 9 -21 7 -29 -15 -6 -15 -10
-35 -10 -46 0 -10 -4 -19 -9 -19 -12 0 -20 48 -14 85 4 22 -1 35 -16 49 -20
18 -21 18 -61 -18 -45 -41 -65 -45 -80 -16 -6 11 -17 20 -24 20 -8 0 -16 9
-19 20 -4 15 -14 20 -37 20 -25 0 -31 3 -26 16 23 61 17 77 -20 49 -26 -20
-31 -19 -37 7 -6 21 -7 21 -25 5 -16 -15 -21 -15 -38 -3 -18 14 -18 15 9 27
30 14 37 34 8 26 -10 -2 -25 0 -34 4 -10 6 -18 5 -22 -1 -12 -19 -35 -10 -35
14 0 37 -10 56 -30 56 -22 0 -35 16 -20 25 5 3 10 14 10 23 -1 18 -33 62 -46
62 -4 0 -21 -17 -39 -37 -30 -35 -34 -37 -59 -25 -32 14 -33 38 -4 69 25 27
19 40 -12 23 -20 -11 -21 -10 -15 10 4 13 1 28 -8 38 -9 9 -18 34 -22 55 -8
42 -23 46 -82 22 -20 -8 -38 -13 -41 -10 -3 3 14 28 38 56 47 55 44 57 -39 23
-36 -15 -58 -9 -29 7 19 10 18 50 -1 73 -10 12 -8 16 8 21 25 7 27 21 6 29 -8
3 -15 12 -15 21 0 11 -11 15 -45 15 -25 0 -45 3 -45 7 0 16 35 43 56 43 27 0
44 20 17 20 -16 1 -15 3 5 20 19 16 22 26 17 50 -9 41 -20 45 -54 21 -35 -25
-56 -27 -47 -5 3 9 9 26 12 39 3 12 17 28 31 34 32 15 21 28 -26 33 -56 5 -60
28 -16 82 37 45 37 47 17 53 -26 6 -26 11 -7 37 25 33 18 38 -42 31 l-58 -6
30 25 c29 25 29 26 8 26 -29 0 -29 21 -3 45 27 25 23 60 -7 59 -18 0 -23 5
-23 23 0 38 40 123 58 123 39 0 72 76 42 95 -6 4 -22 25 -36 47 -23 36 -25 47
-19 94 8 64 18 67 85 24z m403 -11 c40 -6 84 -17 99 -25 15 -8 48 -14 73 -14
25 0 96 -13 158 -30 119 -31 272 -56 399 -64 42 -2 85 -9 95 -15 11 -5 34 -9
53 -9 21 1 38 -5 47 -18 13 -18 14 -18 35 3 l21 21 28 -20 c26 -20 32 -20 84
-9 33 8 76 10 105 6 38 -5 56 -3 80 12 26 15 32 16 40 4 6 -11 12 -12 22 -4 7
6 30 16 50 22 30 10 41 10 60 -2 20 -13 36 -13 123 -2 55 8 136 14 181 15 45
0 85 5 91 11 6 6 45 14 85 17 66 5 72 4 60 -11 -8 -9 -35 -22 -60 -30 -26 -8
-93 -31 -149 -51 -55 -20 -136 -43 -180 -52 -43 -8 -89 -19 -103 -24 -73 -26
-438 -44 -615 -30 -132 11 -158 17 -445 102 -500 148 -501 149 -526 176 -25
26 -23 47 3 38 8 -4 47 -11 86 -17z m32 -134 c66 -19 163 -45 215 -58 52 -14
171 -48 263 -77 205 -62 432 -96 582 -84 50 3 104 6 121 5 33 -1 323 37 335
45 18 11 157 34 177 29 28 -7 29 -33 2 -84 -19 -39 -63 -81 -83 -81 -6 0 -55
-14 -109 -31 l-100 -32 -29 22 -29 22 -48 -28 -47 -28 -225 2 c-184 2 -362 13
-460 28 -154 24 -285 57 -316 80 -16 12 -17 17 -6 34 11 20 10 21 -28 21 -36
0 -43 4 -61 35 -23 39 -32 41 -69 20 -33 -19 -65 -19 -81 1 -8 9 -32 25 -54
34 -54 23 -67 41 -63 86 2 32 0 39 -17 42 -52 8 -65 13 -65 27 0 19 43 12 195
-30z"/>
<path d="M2779 5389 c-228 -9 -278 -27 -323 -116 -24 -48 -21 -236 9 -530 40
-386 62 -490 115 -538 23 -21 157 -69 266 -95 83 -19 299 -51 344 -49 14 0 71
-3 127 -7 98 -7 296 7 408 27 91 17 121 48 263 274 106 170 217 496 238 703
15 143 -101 242 -308 263 -51 5 -104 11 -118 14 -14 2 -56 7 -95 10 -108 8
-252 23 -340 34 -108 14 -383 19 -586 10z"/>
<path d="M1880 4352 c-45 -54 -72 -119 -79 -189 -4 -34 -10 -65 -13 -68 -3 -4
-27 1 -52 9 -26 9 -58 16 -71 16 -21 0 -25 -5 -25 -30 0 -32 26 -50 73 -50 12
0 33 -9 47 -20 25 -19 25 -19 7 -48 -19 -33 -23 -87 -7 -97 16 -10 57 21 76
57 9 18 20 77 26 142 8 99 13 120 49 192 22 45 37 88 33 97 -11 30 -33 26 -64
-11z"/>
<path d="M3720 3445 c32 -36 109 -85 132 -85 13 0 18 8 18 29 0 20 6 32 19 36
24 7 43 0 121 -50 99 -62 244 -125 291 -125 46 0 84 -31 94 -77 19 -86 51
-108 176 -117 110 -8 148 6 237 87 61 57 130 97 165 97 10 0 55 9 99 21 73 18
82 19 97 5 26 -23 93 -20 125 5 45 36 21 44 -149 48 -218 5 -283 -17 -429
-142 -49 -42 -91 -53 -162 -42 -43 6 -56 15 -134 94 -95 97 -139 126 -249 165
-76 27 -255 59 -396 71 l-80 7 25 -27z"/>
<path d="M2606 3274 c-19 -49 21 -271 55 -309 5 -5 9 64 9 158 l0 167 -29 0
c-17 0 -31 -6 -35 -16z"/>
<path d="M6317 3123 c-3 -5 -1 -27 4 -49 6 -21 14 -55 19 -74 7 -28 3 -51 -20
-119 -16 -46 -27 -88 -24 -92 10 -17 44 -9 59 15 30 45 38 124 23 215 -10 65
-18 87 -35 98 -11 8 -23 10 -26 6z"/>
<path d="M5365 5269 c-160 -9 -209 -17 -279 -45 -129 -52 -167 -107 -167 -242
1 -197 103 -559 228 -805 61 -120 86 -145 178 -175 137 -46 192 -54 390 -53
415 2 630 29 702 90 64 54 185 356 208 521 4 24 9 48 11 52 10 16 35 180 48
312 14 144 11 183 -21 218 -41 45 -179 79 -513 125 -55 7 -651 9 -785 2z"/>
<path d="M4092 1828 c-41 -20 -42 -21 -27 -44 21 -33 19 -42 -18 -88 -65 -79
-65 -92 -4 -130 24 -15 28 -15 33 -1 3 8 12 15 19 15 10 0 8 -15 -6 -62 -12
-36 -17 -74 -14 -90 6 -25 40 -61 67 -70 8 -3 7 -11 -1 -27 -10 -18 -10 -29 0
-52 l12 -30 26 25 c61 58 121 60 171 6 l38 -41 31 32 c34 33 53 30 66 -12 10
-30 45 -24 58 11 13 34 37 41 37 11 0 -34 19 -34 62 1 23 18 48 32 55 30 13
-3 83 38 121 72 12 11 22 28 22 39 0 10 21 42 46 71 44 48 83 116 84 144 0 6
-12 12 -26 12 -21 0 -25 3 -19 18 18 41 17 77 -4 96 -15 13 -24 16 -33 8 -14
-11 -92 -9 -121 3 -11 5 -24 1 -36 -9 -17 -16 -21 -16 -55 4 -52 29 -101 27
-122 -6 l-17 -25 -31 30 c-29 29 -36 30 -100 29 -37 -1 -70 -6 -73 -11 -2 -4
-15 3 -28 18 -13 14 -33 25 -44 25 -11 0 -26 3 -34 6 -9 3 -22 -7 -37 -30 -28
-47 -40 -45 -40 4 0 22 -3 40 -7 40 -5 -1 -27 -10 -51 -22z"/>
</g>
</svg>
